<svg width="21" height="17" viewBox="0 0 21 17" fill="none" xmlns="http://www.w3.org/2000/svg">
<g clip-path="url(#clip0_6314_8063)">
<path d="M11.6602 9.85198L12.1082 6.95599H9.32416V5.08398C9.32416 4.63598 9.44149 4.27865 9.67616 4.01198C9.96416 3.68132 10.3908 3.51598 10.9562 3.51598H12.2202V1.05198L11.5162 0.955985C10.9508 0.891985 10.4388 0.859985 9.98016 0.859985C9.21216 0.859985 8.54549 1.01198 7.98016 1.31598C7.41482 1.61998 6.97749 2.06532 6.66816 2.65198C6.35882 3.23865 6.20416 3.94265 6.20416 4.76398V6.95599H3.66016V9.85198H6.20416V16.86H9.32416V9.85198H11.6602Z" fill="white"/>
</g>
<defs>
<clipPath id="clip0_6314_8063">
<rect width="16" height="16" fill="white" transform="matrix(1 0 0 -1 0.5 16.86)"/>
</clipPath>
</defs>
</svg>
