<svg width="17" height="17" viewBox="0 0 17 17" fill="none" xmlns="http://www.w3.org/2000/svg">
<g clip-path="url(#clip0_6314_8082)">
<path d="M4.79616 14.86H1.90016V5.51598H4.79616V14.86ZM3.34016 4.23598C3.04149 4.23598 2.76149 4.15865 2.50016 4.00398C2.23882 3.84932 2.03349 3.64398 1.88416 3.38799C1.73482 3.13198 1.66016 2.84932 1.66016 2.53998C1.66016 2.23065 1.73482 1.94798 1.88416 1.69199C2.03349 1.43598 2.23616 1.23332 2.49216 1.08398C2.74816 0.934651 3.03082 0.859984 3.34016 0.859984C3.64949 0.859984 3.93216 0.934651 4.18816 1.08398C4.44416 1.23332 4.64682 1.43598 4.79616 1.69199C4.94549 1.94798 5.02016 2.23065 5.02016 2.53998C5.02016 2.84932 4.94549 3.13198 4.79616 3.38799C4.64682 3.64398 4.44149 3.84932 4.18016 4.00398C3.91882 4.15865 3.63882 4.23598 3.34016 4.23598ZM15.6602 14.86H12.7642V10.316C12.7642 9.82532 12.7428 9.45198 12.7002 9.19599C12.6362 8.77998 12.5028 8.45999 12.3002 8.23598C12.0655 7.96932 11.7188 7.83599 11.2602 7.83599C10.5668 7.83599 10.0868 8.08132 9.82016 8.57199C9.61749 8.94532 9.51616 9.49999 9.51616 10.236V14.86H6.62016V5.51598H9.40416V6.77999H9.43616C9.64949 6.37465 9.98016 6.03332 10.4282 5.75599C10.9402 5.43598 11.5268 5.27598 12.1882 5.27598C13.1162 5.27598 13.8522 5.47332 14.3962 5.86798C14.8762 6.21999 15.2122 6.74798 15.4042 7.45198C15.5748 8.03865 15.6602 8.79599 15.6602 9.72399V14.86Z" fill="white"/>
</g>
<defs>
<clipPath id="clip0_6314_8082">
<rect width="16" height="16" fill="white" transform="matrix(1 0 0 -1 0.5 16.86)"/>
</clipPath>
</defs>
</svg>
