<svg width="20" height="19" viewBox="0 0 20 19" fill="none" xmlns="http://www.w3.org/2000/svg">
<path d="M8.56862 10.5898C8.56862 9.52519 7.70248 8.65906 6.63784 8.65906C5.57321 8.65906 4.70703 9.52519 4.70703 10.5898H5.8789C5.8789 10.1714 6.21938 9.83093 6.63784 9.83093C7.05631 9.83093 7.39675 10.1714 7.39675 10.5898H8.56862Z" fill="black"/>
<path d="M13.3605 8.65906C12.2958 8.65906 11.4297 9.52519 11.4297 10.5898H12.6016C12.6016 10.1714 12.942 9.83093 13.3605 9.83093C13.7789 9.83093 14.1194 10.1714 14.1194 10.5898H15.2913C15.2913 9.52519 14.4251 8.65906 13.3605 8.65906Z" fill="black"/>
<path d="M9.99807 14.0188C9.25719 14.0188 8.56252 13.6215 8.18504 12.9819L7.17578 13.5774C7.76298 14.5725 8.84442 15.1906 9.99803 15.1906C11.1516 15.1906 12.2331 14.5725 12.8203 13.5774L11.811 12.9818C11.4336 13.6214 10.7389 14.0188 9.99807 14.0188Z" fill="black"/>
<path d="M19.2375 8.51438C18.8643 8.14161 18.3957 7.89512 17.887 7.7986C16.7884 4.40378 13.6015 2.0664 10 2.0664H9.60715C8.66374 2.0664 7.89622 1.29884 7.89622 0.355469H6.72435C6.72435 0.995634 6.93435 1.5875 7.2887 2.0664H6.91743C5.97402 2.0664 5.2065 1.29884 5.2065 0.355469H4.03463C4.03463 1.62872 4.86464 2.71107 6.01173 3.09171C4.19752 4.08911 2.77553 5.75142 2.11307 7.7986C1.60437 7.89512 1.13559 8.14169 0.762064 8.51481C0.270636 9.00676 0 9.66044 0 10.3555C0 11.042 0.264825 11.6896 0.74574 12.1792C1.12159 12.5619 1.59626 12.8144 2.11307 12.9124C3.21158 16.3072 6.39842 18.6445 10 18.6445C13.6016 18.6445 16.7884 16.3072 17.8869 12.9124C18.4037 12.8144 18.8784 12.5619 19.2543 12.1792C19.7352 11.6896 20 11.042 20 10.3555C20 9.66044 19.7294 9.00676 19.2375 8.51438ZM17.4253 11.786L16.9855 11.7943L16.8707 12.2189C16.0342 15.3122 13.2089 17.4726 9.99996 17.4726C6.79107 17.4726 3.96578 15.3122 3.12929 12.2189L3.01446 11.7943L2.57473 11.786C1.80117 11.7714 1.17183 11.1297 1.17183 10.3555C1.17183 9.97321 1.32073 9.61364 1.59061 9.34344C1.85382 9.08051 2.20331 8.93185 2.57462 8.9249L3.01442 8.91664L3.12925 8.49201C3.96578 5.39873 6.79111 3.23831 10 3.23831C11.0591 3.23831 11.9207 4.09994 11.9207 5.15904C11.9207 6.21815 11.0591 7.07982 10 7.07982C8.9409 7.07982 8.07926 6.21819 8.07926 5.15908H6.90739C6.90739 6.86436 8.29472 8.25169 10 8.25169C11.7053 8.25169 13.0926 6.86436 13.0926 5.15908C13.0926 4.67378 12.98 4.21445 12.7799 3.80527C14.7453 4.64129 16.289 6.34095 16.8707 8.49205L16.9855 8.91668L17.4253 8.92494C17.7967 8.93189 18.1461 9.08055 18.4089 9.34301C18.6793 9.61368 18.8282 9.97325 18.8282 10.3555C18.8281 11.1297 18.1988 11.7714 17.4253 11.786Z" fill="black"/>
</svg>
