<svg width="33" height="31" viewBox="0 0 33 31" fill="none" xmlns="http://www.w3.org/2000/svg">
<g filter="url(#filter0_d_6314_4112)">
<path d="M26.1822 3.25H5.07016C4.81016 3.28467 4.59349 3.406 4.42016 3.614C4.24682 3.822 4.16016 4.056 4.16016 4.316C4.16016 4.576 4.24682 4.81433 4.42016 5.031C4.59349 5.24767 4.81016 5.37333 5.07016 5.408H9.25616L8.50216 15.002V15.184C8.50216 15.7733 8.71449 16.2803 9.13916 16.705C9.56382 17.1297 10.0708 17.342 10.6602 17.342H23.9462C24.4662 17.342 24.9212 17.1817 25.3112 16.861C25.7012 16.5403 25.9482 16.146 26.0522 15.678L28.2882 5.902C28.3228 5.694 28.3402 5.52933 28.3402 5.408C28.3402 4.80133 28.1322 4.29 27.7162 3.874C27.3002 3.458 26.7888 3.25 26.1822 3.25ZM23.9462 15.158H10.6602L11.4142 5.408H26.1822L23.9462 15.158ZM12.6622 22.75C13.2688 22.75 13.7845 22.5377 14.2092 22.113C14.6338 21.6883 14.8462 21.1727 14.8462 20.566C14.8462 19.9593 14.6338 19.448 14.2092 19.032C13.7845 18.616 13.2688 18.408 12.6622 18.408C12.0728 18.408 11.5658 18.616 11.1412 19.032C10.7165 19.448 10.5042 19.9593 10.5042 20.566C10.5042 21.1727 10.7165 21.6883 11.1412 22.113C11.5658 22.5377 12.0728 22.75 12.6622 22.75ZM22.4122 22.75C23.0188 22.75 23.5345 22.5377 23.9592 22.113C24.3838 21.6883 24.5962 21.1727 24.5962 20.566C24.5962 19.9593 24.3838 19.448 23.9592 19.032C23.5345 18.616 23.0188 18.408 22.4122 18.408C21.8228 18.408 21.3158 18.616 20.8912 19.032C20.4665 19.448 20.2542 19.9593 20.2542 20.566C20.2542 21.1727 20.4665 21.6883 20.8912 22.113C21.3158 22.5377 21.8228 22.75 22.4122 22.75Z" fill="#030712"/>
</g>
<defs>
<filter id="filter0_d_6314_4112" x="0" y="0" width="34" height="34" filterUnits="userSpaceOnUse" color-interpolation-filters="sRGB">
<feFlood flood-opacity="0" result="BackgroundImageFix"/>
<feColorMatrix in="SourceAlpha" type="matrix" values="0 0 0 0 0 0 0 0 0 0 0 0 0 0 0 0 0 0 127 0" result="hardAlpha"/>
<feOffset dy="4"/>
<feGaussianBlur stdDeviation="2"/>
<feComposite in2="hardAlpha" operator="out"/>
<feColorMatrix type="matrix" values="0 0 0 0 0 0 0 0 0 0 0 0 0 0 0 0 0 0 0.25 0"/>
<feBlend mode="normal" in2="BackgroundImageFix" result="effect1_dropShadow_6314_4112"/>
<feBlend mode="normal" in="SourceGraphic" in2="effect1_dropShadow_6314_4112" result="shape"/>
</filter>
</defs>
</svg>
