<svg width="37" height="37" viewBox="0 0 37 37" fill="none" xmlns="http://www.w3.org/2000/svg">
<rect x="1.12891" y="1.08008" width="35" height="35" rx="5.5" stroke="#E5E7EB"/>
<g clip-path="url(#clip0_6314_7074)">
<path d="M3.01306 18.308C3.30773 18.308 3.5684 18.2004 3.79506 17.985C4.02173 17.7697 4.13506 17.492 4.13506 17.152V15.758C4.13506 14.9194 4.34473 14.1544 4.76406 13.463C5.1834 12.7717 5.7444 12.222 6.44706 11.814C7.14973 11.406 7.89773 11.202 8.69106 11.202H25.9631L22.1551 15.044C21.9284 15.248 21.8151 15.503 21.8151 15.809C21.8151 16.115 21.9284 16.3814 22.1551 16.608C22.3364 16.7894 22.5631 16.88 22.8351 16.88C22.9711 16.88 23.1071 16.8517 23.2431 16.795C23.3791 16.7384 23.4811 16.676 23.5491 16.608L29.2271 10.93C29.2724 10.8847 29.3177 10.828 29.3631 10.76C29.4084 10.692 29.4537 10.658 29.4991 10.658C29.6351 10.3633 29.6351 10.08 29.4991 9.80802C29.4991 9.71735 29.4707 9.64368 29.4141 9.58702C29.3574 9.53035 29.2951 9.50202 29.2271 9.50202L23.5491 3.85802C23.3451 3.63135 23.0901 3.51802 22.7841 3.51802C22.4781 3.51802 22.2117 3.63135 21.9851 3.85802C21.7584 4.08468 21.6507 4.34535 21.6621 4.64002C21.6734 4.93468 21.7811 5.18402 21.9851 5.38802L25.8271 9.23002H8.69106C7.46706 9.23002 6.33373 9.53035 5.29106 10.131C4.2484 10.7317 3.42106 11.5534 2.80906 12.596C2.19706 13.6387 1.89106 14.7833 1.89106 16.03V17.458C1.89106 17.6167 2.01006 17.798 2.24806 18.002C2.48606 18.206 2.74106 18.308 3.01306 18.308ZM28.5131 18.988C28.2184 18.988 27.9577 19.0957 27.7311 19.311C27.5044 19.5264 27.3911 19.804 27.3911 20.144V21.538C27.3911 22.3767 27.1814 23.1417 26.7621 23.833C26.3427 24.5244 25.7817 25.074 25.0791 25.482C24.3764 25.89 23.6284 26.094 22.8351 26.094H5.56306L9.40506 22.252C9.60906 22.048 9.71106 21.793 9.71106 21.487C9.71106 21.181 9.60906 20.9147 9.40506 20.688C9.20106 20.4614 8.9404 20.3537 8.62306 20.365C8.30573 20.3764 8.04506 20.484 7.84106 20.688L2.16306 26.366C2.11773 26.4114 2.0724 26.468 2.02706 26.536C1.98173 26.604 1.9364 26.638 1.89106 26.638C1.75506 26.9327 1.75506 27.216 1.89106 27.488C1.89106 27.5787 1.9194 27.6524 1.97606 27.709C2.03273 27.7657 2.09506 27.794 2.16306 27.794L7.84106 33.472C8.0224 33.6534 8.25473 33.744 8.53806 33.744C8.8214 33.744 9.05373 33.6534 9.23506 33.472C9.46173 33.2454 9.57506 32.979 9.57506 32.673C9.57506 32.367 9.46173 32.112 9.23506 31.908L5.42706 28.066H22.8351C24.0591 28.066 25.1924 27.7657 26.2351 27.165C27.2777 26.5644 28.1051 25.7427 28.7171 24.7C29.3291 23.6574 29.6351 22.5127 29.6351 21.266V19.838C29.6351 19.634 29.5217 19.4414 29.2951 19.26C29.0684 19.0787 28.8077 18.988 28.5131 18.988Z" fill="#030712"/>
</g>
<defs>
<clipPath id="clip0_6314_7074">
<rect width="34" height="34" fill="white" transform="matrix(1 0 0 -1 1.62891 35.5801)"/>
</clipPath>
</defs>
</svg>
