<svg width="21" height="17" viewBox="0 0 21 17" fill="none" xmlns="http://www.w3.org/2000/svg">
<g clip-path="url(#clip0_6314_8069)">
<path d="M15.0122 5.59596C15.0228 5.69196 15.0282 5.83596 15.0282 6.02796C15.0282 7.13729 14.8255 8.23062 14.4202 9.30796C14.0042 10.4386 13.4068 11.4413 12.6282 12.316C11.7962 13.2546 10.8202 13.9853 9.70016 14.508C8.48416 15.0733 7.15082 15.356 5.70016 15.356C4.78282 15.356 3.89749 15.2306 3.04416 14.98C2.19082 14.7293 1.39616 14.364 0.660156 13.884C0.93749 13.916 1.20416 13.932 1.46016 13.932C2.20682 13.932 2.92949 13.8093 3.62816 13.564C4.32682 13.3186 4.95882 12.972 5.52416 12.524C4.80949 12.5133 4.17216 12.2946 3.61216 11.868C3.05216 11.4413 2.66549 10.9026 2.45216 10.252C2.66549 10.284 2.87349 10.3 3.07616 10.3C3.39616 10.3 3.68416 10.2626 3.94016 10.188C3.43882 10.092 2.99082 9.88929 2.59616 9.57996C2.20149 9.27062 1.88949 8.88929 1.66016 8.43596C1.43082 7.98262 1.31616 7.49462 1.31616 6.97196V6.92396C1.75349 7.17996 2.24416 7.31862 2.78816 7.33996C2.34016 7.05196 1.98549 6.66529 1.72416 6.17996C1.46282 5.69462 1.33216 5.17462 1.33216 4.61996C1.33216 4.02262 1.48149 3.46796 1.78016 2.95596C2.60149 3.96929 3.58816 4.77462 4.74016 5.37196C5.92416 5.97996 7.18816 6.32129 8.53216 6.39596C8.47882 6.12929 8.45216 5.87862 8.45216 5.64396C8.45216 5.04662 8.59882 4.49729 8.89216 3.99596C9.18549 3.49462 9.58282 3.09729 10.0842 2.80396C10.5855 2.51062 11.1348 2.36396 11.7322 2.36396C12.2015 2.36396 12.6442 2.45729 13.0602 2.64396C13.4762 2.83062 13.8335 3.08396 14.1322 3.40396C14.8895 3.25462 15.5828 2.98796 16.2122 2.60396C16.0948 2.98796 15.9108 3.33462 15.6602 3.64396C15.4095 3.95329 15.1135 4.20929 14.7722 4.41196C15.3802 4.34796 16.0095 4.17729 16.6602 3.89996C16.2122 4.56129 15.6628 5.12662 15.0122 5.59596Z" fill="white"/>
</g>
<defs>
<clipPath id="clip0_6314_8069">
<rect width="16" height="16" fill="white" transform="matrix(1 0 0 -1 0.5 16.86)"/>
</clipPath>
</defs>
</svg>
