<svg width="20" height="21" viewBox="0 0 20 21" fill="none" xmlns="http://www.w3.org/2000/svg">
<path d="M15.8202 3.46982H2.50016C2.08682 3.46982 1.70016 3.56982 1.34016 3.76982C0.980156 3.96982 0.69349 4.24316 0.480156 4.58982C0.266823 4.93649 0.160156 5.31649 0.160156 5.72982V15.7298C0.160156 16.1432 0.26349 16.5298 0.470156 16.8898C0.676823 17.2498 0.956823 17.5365 1.31016 17.7498C1.66349 17.9632 2.06016 18.0698 2.50016 18.0698H15.8202C16.2335 18.0698 16.6202 17.9665 16.9802 17.7598C17.3402 17.5532 17.6268 17.2732 17.8402 16.9198C18.0535 16.5665 18.1602 16.1698 18.1602 15.7298V5.72982C18.1602 5.31649 18.0535 4.93649 17.8402 4.58982C17.6268 4.24316 17.3402 3.96982 16.9802 3.76982C16.6202 3.56982 16.2335 3.46982 15.8202 3.46982ZM2.50016 4.72982H15.8202C16.1135 4.72982 16.3535 4.82982 16.5402 5.02982C16.7268 5.22982 16.8202 5.46316 16.8202 5.72982V6.22982L9.66016 10.8098C9.48682 10.8898 9.30682 10.9298 9.12016 10.9298C8.93349 10.9298 8.75349 10.8898 8.58016 10.8098L1.50016 6.22982V5.72982C1.50016 5.43649 1.59349 5.19649 1.78016 5.00982C1.96682 4.82316 2.20682 4.72982 2.50016 4.72982ZM15.8202 16.8098H2.50016C2.22016 16.8098 1.98349 16.7065 1.79016 16.4998C1.59682 16.2932 1.50016 16.0632 1.50016 15.8098V7.72982L8.00016 11.8898C8.28016 12.1165 8.66682 12.2298 9.16016 12.2298C9.65349 12.2298 10.0402 12.1165 10.3202 11.8898L16.8202 7.72982V15.7298C16.8202 16.0232 16.7268 16.2765 16.5402 16.4898C16.3535 16.7032 16.1135 16.8098 15.8202 16.8098Z" fill="#9CA3AF"/>
</svg>
