<svg width="18" height="21" viewBox="0 0 18 21" fill="none" xmlns="http://www.w3.org/2000/svg">
<path d="M17.4124 14.5677L15.3811 13.3949L17.1415 12.3569C17.4661 12.1654 17.5742 11.747 17.3827 11.4223C17.1912 11.0977 16.7729 10.9897 16.4481 11.1811L14.0232 12.611L10.3669 10.5L14.0225 8.38931L16.4482 9.819C16.557 9.88316 16.6764 9.91355 16.7941 9.91355C17.0278 9.91355 17.2554 9.79343 17.3827 9.57749C17.5741 9.2528 17.466 8.83439 17.1413 8.64292L15.3806 7.60526L17.4124 6.43218C17.7389 6.24372 17.8507 5.8263 17.6622 5.49989C17.4738 5.17338 17.0564 5.06154 16.73 5.25009L14.6986 6.42299L14.6801 4.37904C14.6767 4.00212 14.3675 3.69755 13.9915 3.70273C13.6146 3.7061 13.3117 4.01441 13.3152 4.39133L13.3406 7.20695L9.68448 9.31787V5.09639L12.1357 3.71101C12.4639 3.52556 12.5795 3.10923 12.3941 2.781C12.2086 2.45285 11.7922 2.3371 11.4641 2.52265L9.68448 3.52847V1.1825C9.68448 0.805577 9.37891 0.5 9.00199 0.5C8.62507 0.5 8.31949 0.805577 8.31949 1.1825V3.52847L6.5399 2.52274C6.21157 2.33719 5.79543 2.45285 5.60988 2.78109C5.42443 3.10923 5.54009 3.52565 5.86823 3.71111L8.3194 5.09648V9.31787L4.66331 7.20695L4.68869 4.39133C4.69215 4.01441 4.38931 3.7061 4.01238 3.70273C4.01029 3.70273 4.00829 3.70273 4.00611 3.70273C3.6321 3.70273 3.32716 4.00422 3.32379 4.37913L3.30532 6.42299L1.27393 5.25009C0.947516 5.06154 0.5301 5.17347 0.34164 5.49989C0.15318 5.8263 0.265018 6.24372 0.591434 6.43218L2.62318 7.60526L0.862249 8.64311C0.537562 8.83448 0.429455 9.25289 0.620827 9.57767C0.748136 9.79361 0.975726 9.91373 1.2095 9.91373C1.32726 9.91373 1.44656 9.88325 1.55539 9.81919L3.98135 8.38949L7.63708 10.5001L3.98072 12.6111L1.55539 11.181C1.23089 10.9896 0.81229 11.0975 0.620827 11.4222C0.429364 11.7469 0.53738 12.1653 0.862067 12.3567L2.62273 13.3948L0.591343 14.5676C0.264927 14.7561 0.153089 15.1735 0.341549 15.4999C0.467948 15.7189 0.697358 15.8413 0.933229 15.8413C1.04898 15.8413 1.16637 15.8118 1.27384 15.7497L3.30523 14.5768L3.3237 16.6209C3.32707 16.9957 3.63201 17.2973 4.00602 17.2973C4.00811 17.2973 4.0102 17.2973 4.01229 17.2972C4.38921 17.2938 4.69206 16.9855 4.6886 16.6086L4.66321 13.7929L8.3194 11.6819V15.9035L5.86823 17.2889C5.54009 17.4744 5.42443 17.8907 5.60988 18.2189C5.73537 18.441 5.9666 18.5657 6.20466 18.5657C6.31841 18.5657 6.43379 18.5372 6.5399 18.4773L8.31949 17.4715V19.8175C8.31949 20.1944 8.62507 20.5 9.00199 20.5C9.37891 20.5 9.68448 20.1944 9.68448 19.8175V17.4715L11.4641 18.4773C11.5702 18.5372 11.6855 18.5657 11.7993 18.5657C12.0374 18.5657 12.2686 18.441 12.3941 18.2189C12.5795 17.8908 12.4639 17.4744 12.1357 17.2889L9.68448 15.9035V11.682L13.3406 13.7929L13.3146 16.6085C13.311 16.9854 13.6138 17.2938 13.9907 17.2973C13.9929 17.2974 13.995 17.2974 13.9971 17.2974C14.3711 17.2974 14.676 16.9959 14.6795 16.6211L14.6984 14.5768L16.73 15.7498C16.8375 15.8119 16.9549 15.8414 17.0707 15.8414C17.3065 15.8414 17.5359 15.7189 17.6623 15.5C17.8508 15.1736 17.739 14.7562 17.4124 14.5677Z" fill="black"/>
</svg>
