<svg width="26" height="26" viewBox="0 0 26 26" fill="none" xmlns="http://www.w3.org/2000/svg">
<path d="M6.66016 5.40801C5.88016 5.40801 5.15649 5.60301 4.48916 5.99301C3.82182 6.38301 3.29316 6.91168 2.90316 7.57901C2.51316 8.24634 2.31816 8.97001 2.31816 9.75001C2.31816 11.5353 2.82949 13.234 3.85216 14.846C4.68416 16.198 5.84549 17.4633 7.33616 18.642C8.67082 19.734 10.2048 20.696 11.9382 21.528L12.0682 21.58C13.8535 20.7307 15.4482 19.7427 16.8522 18.616L16.8002 18.642C18.2908 17.4633 19.4522 16.198 20.2842 14.846C21.3068 13.234 21.8182 11.5353 21.8182 9.75001C21.8182 8.97001 21.6232 8.24634 21.2332 7.57901C20.8432 6.91168 20.3145 6.38301 19.6472 5.99301C18.9798 5.60301 18.2562 5.40801 17.4762 5.40801C16.7828 5.40801 16.1285 5.55968 15.5132 5.86301C14.8978 6.16634 14.3778 6.58234 13.9532 7.11101C13.5285 7.63968 13.2555 8.23334 13.1342 8.89201C13.0822 9.13468 12.9565 9.33834 12.7572 9.50301C12.5578 9.66768 12.3282 9.75001 12.0682 9.75001C11.8082 9.75001 11.5785 9.66768 11.3792 9.50301C11.1798 9.33834 11.0542 9.13468 11.0022 8.89201C10.8808 8.23334 10.6078 7.63968 10.1832 7.11101C9.75849 6.58234 9.23849 6.16634 8.62316 5.86301C8.00782 5.55968 7.35349 5.40801 6.66016 5.40801ZM12.0682 23.842C11.9122 23.8247 11.7562 23.79 11.6002 23.738C11.5135 23.7033 11.3662 23.634 11.1582 23.53C9.25149 22.6287 7.50949 21.5453 5.93216 20.28L5.98416 20.332C4.30282 19.0147 2.97682 17.576 2.00616 16.016C0.77549 14.04 0.160156 11.9513 0.160156 9.75001C0.160156 8.57134 0.45049 7.48368 1.03116 6.48701C1.61182 5.49034 2.40049 4.70168 3.39716 4.12101C4.39382 3.54034 5.48149 3.25001 6.66016 3.25001C7.75216 3.25001 8.77049 3.49701 9.71516 3.99101C10.6598 4.48501 11.4442 5.15668 12.0682 6.00601V6.03201C12.6922 5.16534 13.4765 4.48501 14.4212 3.99101C15.3658 3.49701 16.3842 3.25001 17.4762 3.25001C18.6548 3.25001 19.7425 3.54034 20.7392 4.12101C21.7358 4.70168 22.5245 5.49034 23.1052 6.48701C23.6858 7.48368 23.9762 8.57134 23.9762 9.75001C23.9762 11.9513 23.3608 14.04 22.1302 16.016C21.1595 17.576 19.8335 19.0147 18.1522 20.332C16.6095 21.5453 14.9368 22.594 13.1342 23.478L12.9782 23.53C12.5622 23.738 12.2588 23.842 12.0682 23.842Z" fill="#030712"/>
</svg>
