<svg width="18" height="21" viewBox="0 0 18 21" fill="none" xmlns="http://www.w3.org/2000/svg">
<path d="M17.7355 19.818L16.1633 10.3778C15.9364 9.01812 14.7709 8.03125 13.3919 8.03125C12.3307 8.03125 11.4674 7.16793 11.4674 6.10676V2.96875C11.4674 1.6075 10.36 0.5 8.99868 0.5C7.63739 0.5 6.52993 1.6075 6.52993 2.96875V6.10676C6.52993 7.16793 5.66661 8.03125 4.60544 8.03125C3.22649 8.03125 2.06094 9.01813 1.83391 10.3786L0.261843 19.818C0.233601 19.9879 0.281531 20.1615 0.392859 20.2929C0.504226 20.4243 0.667663 20.5 0.839851 20.5H17.1575C17.3297 20.5 17.4932 20.4243 17.6045 20.2929C17.7158 20.1615 17.7638 19.9879 17.7355 19.818ZM2.98993 10.5707C3.12219 9.77828 3.80161 9.20312 4.60544 9.20312C6.31278 9.20312 7.7018 7.8141 7.7018 6.10676V2.96875C7.7018 2.25363 8.2836 1.67188 8.99868 1.67188C9.71376 1.67188 10.2956 2.25367 10.2956 2.96875V6.10676C10.2956 7.8141 11.6846 9.20312 13.3919 9.20312C14.1957 9.20312 14.8752 9.77828 15.0073 10.57C15.0537 10.8503 15.1026 11.1451 15.1517 11.4414C14.394 10.86 13.4619 10.5417 12.5039 10.5417H5.49352C4.53548 10.5417 3.60337 10.86 2.84567 11.4414C2.89473 11.1454 2.94356 10.8508 2.98993 10.5707ZM2.35926 14.37C2.61466 12.8307 3.93278 11.7136 5.49348 11.7136H12.5038C14.0645 11.7136 15.3827 12.8307 15.6383 14.3714C15.7929 15.2898 15.9475 16.2145 16.0483 16.8177H1.94899C2.04977 16.2143 2.20454 15.2893 2.35926 14.37ZM1.53122 19.3281L1.75372 17.9896H16.2436L16.4661 19.3281H1.53122Z" fill="black"/>
</svg>
