<svg width="64" height="15" viewBox="0 0 64 15" fill="none" xmlns="http://www.w3.org/2000/svg">
<path d="M11.5993 0.540527H8.59922C8.59922 3.04053 7.39922 5.34053 5.39922 6.84053L4.19922 7.84053L8.89922 14.2405H12.7993L8.39922 8.34053C10.4993 6.34053 11.5993 3.54053 11.5993 0.540527Z" fill="black"/>
<path d="M3.79922 0.540527H0.699219V14.2405H3.79922V0.540527Z" fill="black"/>
<path d="M16.6992 0.540527H13.6992V14.2405H16.6992V0.540527Z" fill="black"/>
<path d="M42.5984 4.54053C41.4984 4.54053 40.3984 4.84053 39.6984 5.84053V4.84053H36.8984V14.2405H39.7984V9.24053C39.7984 7.84053 40.7984 7.14053 41.8984 7.14053C43.0984 7.14053 43.8984 7.84053 43.8984 9.24053V14.2405H46.6984V8.24053C46.5984 6.04053 44.8984 4.54053 42.5984 4.54053Z" fill="black"/>
<path d="M25.6008 4.84053V5.44053C24.8008 4.84053 23.8008 4.54053 22.8008 4.54053C20.0008 4.54053 17.8008 6.74053 17.8008 9.54053C17.8008 12.3405 20.0008 14.5405 22.8008 14.5405C23.8008 14.5405 24.8008 14.2405 25.6008 13.6405V14.2405H28.4008V4.84053H25.6008ZM23.0008 11.9405C21.6008 11.9405 20.4008 10.8405 20.4008 9.54053C20.4008 8.24053 21.5008 7.14053 23.0008 7.14053C24.5008 7.14053 25.6008 8.24053 25.6008 9.54053C25.6008 10.8405 24.4008 11.9405 23.0008 11.9405Z" fill="black"/>
<path d="M32.7984 6.04082V4.84082H29.8984V14.2409H32.7984V9.84082C32.7984 8.34082 34.3984 7.54082 35.4984 7.54082V4.84082C34.3984 4.84082 33.3984 5.24082 32.7984 6.04082Z" fill="black"/>
<path d="M55.3977 4.84053V5.44053C54.5977 4.84053 53.6977 4.54053 52.5977 4.54053C49.7977 4.54053 47.5977 6.74053 47.5977 9.54053C47.5977 12.3405 49.7977 14.5405 52.5977 14.5405C53.5977 14.5405 54.5977 14.2405 55.3977 13.6405V14.2405H58.1977V4.84053H55.3977ZM52.8977 11.9405C51.4977 11.9405 50.2977 10.8405 50.2977 9.54053C50.2977 8.24053 51.3977 7.14053 52.8977 7.14053C54.2977 7.14053 55.4977 8.24053 55.4977 9.54053C55.3977 10.8405 54.2977 11.9405 52.8977 11.9405Z" fill="black"/>
<path d="M60.3984 5.04082C60.3984 4.94082 60.2984 4.84082 60.1984 4.84082H59.8984V5.54082H59.9984V5.34082H60.0984L60.2984 5.54082H60.3984L60.2984 5.24082C60.3984 5.24082 60.3984 5.14082 60.3984 5.04082ZM60.1984 5.14082H60.0984V4.94082H60.1984C60.2984 4.94082 60.2984 4.94082 60.2984 5.04082C60.2984 5.14082 60.2984 5.14082 60.1984 5.14082Z" fill="black"/>
<path d="M60.2 4.54053C59.8 4.54053 59.5 4.84053 59.5 5.24053C59.5 5.64053 59.8 5.94053 60.2 5.94053C60.6 5.94053 60.9 5.64053 60.9 5.24053C60.9 4.84053 60.5 4.54053 60.2 4.54053ZM60.2 5.74053C59.9 5.74053 59.7 5.54053 59.7 5.14053C59.7 4.84053 59.9 4.54053 60.2 4.54053C60.5 4.54053 60.7 4.74053 60.7 5.14053C60.7 5.54053 60.4 5.74053 60.2 5.74053Z" fill="black"/>
<path d="M61.3 10.9404C60.3 10.9404 59.5 11.7404 59.5 12.7404C59.5 13.7404 60.3 14.5404 61.3 14.5404C62.3 14.5404 63.1 13.7404 63.1 12.7404C63.1 11.6404 62.3 10.9404 61.3 10.9404Z" fill="black"/>
</svg>
