<svg width="26" height="26" viewBox="0 0 26 26" fill="none" xmlns="http://www.w3.org/2000/svg">
<path d="M9.70216 1.40399C7.98616 1.40399 6.39149 1.83732 4.91816 2.70399C3.47949 3.53599 2.33549 4.67132 1.48616 6.10999C0.602156 7.60065 0.160156 9.21265 0.160156 10.946C0.160156 12.8007 0.792823 14.768 2.05816 16.848C3.01149 18.4253 4.28549 20.02 5.88016 21.632C6.74682 22.4987 7.73482 23.4 8.84416 24.336L9.15616 24.596C9.20816 24.648 9.28616 24.6957 9.39016 24.739C9.49416 24.7823 9.60249 24.804 9.71516 24.804C9.82782 24.804 9.92316 24.791 10.0012 24.765C10.0792 24.739 10.1615 24.6827 10.2482 24.596L10.5602 24.336C11.6695 23.4 12.6575 22.4987 13.5242 21.632C15.1188 20.02 16.3928 18.4253 17.3462 16.848C18.6115 14.768 19.2442 12.8007 19.2442 10.946C19.2442 9.21265 18.8022 7.60065 17.9182 6.10999C17.0688 4.67132 15.9248 3.53599 14.4862 2.70399C13.0128 1.83732 11.4182 1.40399 9.70216 1.40399ZM9.70216 22.75C8.78349 22.0047 7.84749 21.1467 6.89416 20.176C5.49016 18.7027 4.37216 17.264 3.54016 15.86C2.44816 14.04 1.90216 12.3673 1.90216 10.842C1.90216 9.42065 2.25749 8.10332 2.96816 6.88999C3.64416 5.71132 4.57149 4.78399 5.75016 4.10799C6.96349 3.39732 8.28082 3.04199 9.70216 3.04199C11.1235 3.04199 12.4408 3.40599 13.6542 4.13399C14.8328 4.82732 15.7688 5.77199 16.4622 6.96799C17.1555 8.16399 17.5022 9.45532 17.5022 10.842C17.5022 12.4193 16.9562 14.118 15.8642 15.938C15.0322 17.3247 13.9142 18.746 12.5102 20.202C11.5915 21.138 10.6555 21.9873 9.70216 22.75ZM9.70216 6.81199C8.95682 6.81199 8.27216 6.99832 7.64816 7.37099C7.02416 7.74365 6.52582 8.24632 6.15316 8.87899C5.78049 9.51165 5.59416 10.2007 5.59416 10.946C5.59416 11.6913 5.78049 12.3803 6.15316 13.013C6.52582 13.6457 7.02416 14.144 7.64816 14.508C8.27216 14.872 8.95682 15.054 9.70216 15.054C10.4475 15.054 11.1365 14.8677 11.7692 14.495C12.4018 14.1223 12.9002 13.624 13.2642 13C13.6282 12.376 13.8102 11.6913 13.8102 10.946C13.8102 10.2007 13.6282 9.51165 13.2642 8.87899C12.9002 8.24632 12.4018 7.74365 11.7692 7.37099C11.1365 6.99832 10.4475 6.81199 9.70216 6.81199ZM9.70216 13.312C9.04349 13.312 8.48016 13.078 8.01216 12.61C7.54416 12.142 7.31016 11.5873 7.31016 10.946C7.31016 10.5127 7.41849 10.114 7.63516 9.74999C7.85182 9.38599 8.14216 9.09565 8.50616 8.87899C8.87016 8.66232 9.26882 8.55399 9.70216 8.55399C10.1355 8.55399 10.5342 8.66232 10.8982 8.87899C11.2622 9.09565 11.5525 9.38599 11.7692 9.74999C11.9858 10.114 12.0942 10.5127 12.0942 10.946C12.0942 11.5873 11.8602 12.142 11.3922 12.61C10.9242 13.078 10.3608 13.312 9.70216 13.312Z" fill="#030712"/>
</svg>
