<svg width="53" height="16" viewBox="0 0 53 16" fill="none" xmlns="http://www.w3.org/2000/svg">
<g clip-path="url(#clip0_6314_4056)">
<mask id="mask0_6314_4056" style="mask-type:luminance" maskUnits="userSpaceOnUse" x="0" y="1" width="53" height="15">
<path d="M52.5 1.54053H0V15.5405H52.5V1.54053Z" fill="white"/>
</mask>
<g mask="url(#mask0_6314_4056)">
<path d="M6.639 1.65283H2.614C2.339 1.65283 2.1015 1.85282 2.064 2.12782L0.438998 12.4278C0.401498 12.6278 0.563998 12.8153 0.776498 12.8153H2.7015C2.9765 12.8153 3.214 12.6154 3.2515 12.3404L3.689 9.56532C3.7265 9.29032 3.964 9.09033 4.239 9.09033H5.5015C8.1515 9.09033 9.6765 7.81534 10.0765 5.26534C10.2515 4.15284 10.089 3.27783 9.564 2.66533C8.989 2.01533 7.9765 1.65283 6.639 1.65283ZM7.1015 5.42783C6.8765 6.86533 5.7765 6.86533 4.714 6.86533H4.1015L4.5265 4.17783C4.5515 4.01533 4.689 3.89034 4.8515 3.89034H5.1265C5.8515 3.89034 6.539 3.89033 6.889 4.30283C7.114 4.55283 7.1765 4.91533 7.1015 5.42783Z" fill="#283B82"/>
<path d="M18.6523 5.37793H16.7273C16.5648 5.37793 16.4273 5.50294 16.4023 5.66544L16.3148 6.20295L16.1773 6.00293C15.7648 5.40293 14.8273 5.19043 13.9023 5.19043C11.7773 5.19043 9.96476 6.80293 9.60226 9.06543C9.41476 10.1904 9.67726 11.2655 10.3148 12.028C10.9023 12.7155 11.7398 13.0029 12.7398 13.0029C14.4523 13.0029 15.4023 11.903 15.4023 11.903L15.3148 12.4404C15.2773 12.6404 15.4398 12.828 15.6398 12.828H17.3773C17.6523 12.828 17.8898 12.628 17.9273 12.353L18.9648 5.76545C19.0148 5.56545 18.8523 5.37793 18.6523 5.37793ZM15.9648 9.12793C15.7773 10.2279 14.9023 10.9655 13.7898 10.9655C13.2273 10.9655 12.7898 10.7904 12.5023 10.4404C12.2148 10.1029 12.1148 9.62794 12.2023 9.09044C12.3773 8.00294 13.2648 7.24044 14.3648 7.24044C14.9148 7.24044 15.3523 7.42795 15.6523 7.76545C15.9273 8.10295 16.0523 8.59043 15.9648 9.12793Z" fill="#283B82"/>
<path d="M28.9013 5.37793H26.9638C26.7763 5.37793 26.6013 5.46543 26.5013 5.62793L23.8388 9.55294L22.7138 5.77794C22.6388 5.54044 22.4263 5.37793 22.1763 5.37793H20.2763C20.0513 5.37793 19.8888 5.60293 19.9638 5.81543L22.0888 12.0654L20.0888 14.8904C19.9263 15.1154 20.0888 15.4154 20.3638 15.4154H22.3013C22.4888 15.4154 22.6513 15.3279 22.7638 15.1779L29.2013 5.89045C29.3263 5.67795 29.1638 5.37793 28.9013 5.37793Z" fill="#283B82"/>
<path d="M35.3031 1.65283H31.2781C31.0031 1.65283 30.7656 1.85282 30.7281 2.12782L29.1031 12.4278C29.0656 12.6278 29.2281 12.8153 29.4281 12.8153H31.5031C31.6906 12.8153 31.8531 12.6778 31.8906 12.4903L32.3531 9.56532C32.3906 9.29032 32.6281 9.09033 32.9031 9.09033H34.1781C36.8281 9.09033 38.3531 7.81534 38.7531 5.26534C38.9281 4.15284 38.7656 3.27783 38.2406 2.66533C37.6656 2.01533 36.6531 1.65283 35.3031 1.65283ZM35.7656 5.42783C35.5406 6.86533 34.4406 6.86533 33.3781 6.86533H32.7781L33.2031 4.17783C33.2281 4.01533 33.3656 3.89034 33.5281 3.89034H33.8031C34.5281 3.89034 35.2156 3.89033 35.5656 4.30283C35.7781 4.55283 35.8406 4.91533 35.7656 5.42783Z" fill="#469BDB"/>
<path d="M47.3124 5.37793H45.3874C45.2249 5.37793 45.0874 5.50294 45.0624 5.66544L44.9749 6.20295L44.8374 6.00293C44.4249 5.40293 43.4874 5.19043 42.5624 5.19043C40.4374 5.19043 38.6249 6.80293 38.2624 9.06543C38.0749 10.1904 38.3374 11.2655 38.9749 12.028C39.5624 12.7155 40.3999 13.0029 41.3999 13.0029C43.1124 13.0029 44.0624 11.903 44.0624 11.903L43.9749 12.4404C43.9374 12.6404 44.0999 12.828 44.3124 12.828H46.0499C46.3249 12.828 46.5624 12.628 46.5999 12.353L47.6374 5.76545C47.6749 5.56545 47.5124 5.37793 47.3124 5.37793ZM44.6249 9.12793C44.4374 10.2279 43.5624 10.9655 42.4499 10.9655C41.8874 10.9655 41.4499 10.7904 41.1624 10.4404C40.8749 10.1029 40.7749 9.62794 40.8624 9.09044C41.0374 8.00294 41.9249 7.24044 43.0249 7.24044C43.5749 7.24044 44.0124 7.42795 44.3124 7.76545C44.5999 8.10295 44.7124 8.59043 44.6249 9.12793Z" fill="#469BDB"/>
<path d="M49.5773 1.9404L47.9273 12.4404C47.8898 12.6404 48.0523 12.8279 48.2523 12.8279H49.9148C50.1898 12.8279 50.4273 12.6279 50.4648 12.3529L52.0898 2.05291C52.1273 1.85291 51.9648 1.66541 51.7648 1.66541H49.9023C49.7523 1.65291 49.6148 1.77791 49.5773 1.9404Z" fill="#469BDB"/>
</g>
</g>
<defs>
<clipPath id="clip0_6314_4056">
<rect width="53" height="15" fill="white" transform="translate(0 0.94043)"/>
</clipPath>
</defs>
</svg>
