<svg width="21" height="17" viewBox="0 0 21 17" fill="none" xmlns="http://www.w3.org/2000/svg">
<path d="M8.66816 5.26004C8.01749 5.26004 7.41749 5.42271 6.86816 5.74804C6.31882 6.07337 5.88149 6.51071 5.55616 7.06004C5.23082 7.60938 5.06816 8.20937 5.06816 8.86004C5.06816 9.51071 5.23082 10.1107 5.55616 10.66C5.88149 11.2094 6.31882 11.644 6.86816 11.964C7.41749 12.284 8.01749 12.444 8.66816 12.444C9.31882 12.444 9.91882 12.284 10.4682 11.964C11.0175 11.644 11.4522 11.2094 11.7722 10.66C12.0922 10.1107 12.2522 9.51071 12.2522 8.86004C12.2522 8.20937 12.0922 7.60938 11.7722 7.06004C11.4522 6.51071 11.0175 6.07337 10.4682 5.74804C9.91882 5.42271 9.31882 5.26004 8.66816 5.26004ZM8.66816 11.196C8.24149 11.196 7.84949 11.092 7.49216 10.884C7.13482 10.676 6.85216 10.3907 6.64416 10.028C6.43616 9.66538 6.33216 9.27604 6.33216 8.86004C6.33216 8.44404 6.43616 8.05471 6.64416 7.69204C6.85216 7.32938 7.13482 7.04404 7.49216 6.83604C7.84949 6.62804 8.24149 6.52404 8.66816 6.52404C9.09482 6.52404 9.48682 6.62804 9.84416 6.83604C10.2015 7.04404 10.4842 7.32671 10.6922 7.68404C10.9002 8.04138 11.0042 8.43337 11.0042 8.86004C11.0042 9.28671 10.9002 9.67871 10.6922 10.036C10.4842 10.3934 10.1988 10.676 9.83616 10.884C9.47349 11.092 9.08416 11.196 8.66816 11.196ZM13.2442 5.11604C13.2442 5.35071 13.1615 5.55071 12.9962 5.71604C12.8308 5.88138 12.6308 5.96404 12.3962 5.96404C12.1615 5.96404 11.9642 5.88138 11.8042 5.71604C11.6442 5.55071 11.5642 5.35071 11.5642 5.11604C11.5642 4.88137 11.6442 4.68404 11.8042 4.52404C11.9642 4.36404 12.1615 4.28404 12.3962 4.28404C12.6308 4.28404 12.8308 4.36404 12.9962 4.52404C13.1615 4.68404 13.2442 4.88137 13.2442 5.11604ZM15.6122 5.96404C15.5908 5.35604 15.5002 4.82804 15.3402 4.38004C15.1588 3.86804 14.8735 3.42004 14.4842 3.03604C14.0948 2.65204 13.6442 2.36937 13.1322 2.18804C12.6842 2.02804 12.1562 1.93204 11.5482 1.90004C10.9722 1.86804 10.0095 1.85204 8.66016 1.85204C7.31082 1.85204 6.34816 1.86804 5.77216 1.90004C5.15349 1.93204 4.62549 2.02804 4.18816 2.18804C3.67616 2.36937 3.22816 2.65204 2.84416 3.03604C2.46016 3.42004 2.17749 3.86804 1.99616 4.38004C1.82549 4.82804 1.72949 5.35604 1.70816 5.96404C1.67616 6.54004 1.66016 7.50271 1.66016 8.85204C1.66016 10.2014 1.67616 11.164 1.70816 11.74C1.72949 12.348 1.82016 12.876 1.98016 13.324C2.16149 13.836 2.44949 14.2894 2.84416 14.684C3.23882 15.0787 3.69216 15.3614 4.20416 15.532C4.63082 15.692 5.15349 15.7827 5.77216 15.804C6.34816 15.8467 7.31082 15.868 8.66016 15.868C10.0095 15.868 10.9722 15.8467 11.5482 15.804C12.1562 15.7827 12.6842 15.692 13.1322 15.532C13.6442 15.3507 14.0948 15.0654 14.4842 14.676C14.8735 14.2867 15.1588 13.836 15.3402 13.324C15.5002 12.876 15.5908 12.348 15.6122 11.74C15.6442 11.164 15.6602 10.204 15.6602 8.86004C15.6602 7.51604 15.6442 6.55071 15.6122 5.96404ZM14.1242 12.988C14.0068 13.2867 13.8335 13.5534 13.6042 13.788C13.3748 14.0227 13.1055 14.1987 12.7962 14.316C12.4442 14.4547 11.8735 14.5454 11.0842 14.588C10.6362 14.6094 9.99082 14.6147 9.14816 14.604H8.18816C7.34549 14.6147 6.70016 14.6094 6.25216 14.588C5.45216 14.5454 4.88149 14.4547 4.54016 14.316C4.23082 14.1987 3.96149 14.0254 3.73216 13.796C3.50282 13.5667 3.32949 13.2974 3.21216 12.988C3.07349 12.636 2.98282 12.0654 2.94016 11.276C2.91882 10.828 2.91349 10.1827 2.92416 9.34004V8.38004C2.91349 7.53737 2.91882 6.89204 2.94016 6.44404C2.98282 5.64404 3.07349 5.07337 3.21216 4.73204C3.32949 4.42271 3.50282 4.15337 3.73216 3.92404C3.96149 3.69471 4.23082 3.52137 4.54016 3.40404C4.88149 3.26538 5.44682 3.17471 6.23616 3.13204C6.68416 3.11071 7.33482 3.10537 8.18816 3.11604H9.14816C9.99082 3.10537 10.6362 3.11071 11.0842 3.13204C11.8735 3.17471 12.4442 3.26538 12.7962 3.40404C13.1055 3.52137 13.3748 3.69471 13.6042 3.92404C13.8335 4.15337 14.0068 4.42271 14.1242 4.73204C14.2628 5.07337 14.3535 5.63871 14.3962 6.42804C14.4175 6.87604 14.4228 7.52671 14.4122 8.38004V9.34004C14.4228 10.1827 14.4175 10.828 14.3962 11.276C14.3535 12.0654 14.2628 12.636 14.1242 12.988Z" fill="white"/>
</svg>
