<svg width="15" height="15" viewBox="0 0 15 15" fill="none" xmlns="http://www.w3.org/2000/svg">
<path d="M7.66816 4.26004C7.01749 4.26004 6.41749 4.42271 5.86816 4.74804C5.31882 5.07337 4.88149 5.51071 4.55616 6.06004C4.23082 6.60938 4.06816 7.20937 4.06816 7.86004C4.06816 8.51071 4.23082 9.11071 4.55616 9.66004C4.88149 10.2094 5.31882 10.644 5.86816 10.964C6.41749 11.284 7.01749 11.444 7.66816 11.444C8.31882 11.444 8.91882 11.284 9.46816 10.964C10.0175 10.644 10.4522 10.2094 10.7722 9.66004C11.0922 9.11071 11.2522 8.51071 11.2522 7.86004C11.2522 7.20937 11.0922 6.60938 10.7722 6.06004C10.4522 5.51071 10.0175 5.07337 9.46816 4.74804C8.91882 4.42271 8.31882 4.26004 7.66816 4.26004ZM7.66816 10.196C7.24149 10.196 6.84949 10.092 6.49216 9.88404C6.13482 9.67604 5.85216 9.39071 5.64416 9.02804C5.43616 8.66538 5.33216 8.27604 5.33216 7.86004C5.33216 7.44404 5.43616 7.05471 5.64416 6.69204C5.85216 6.32938 6.13482 6.04404 6.49216 5.83604C6.84949 5.62804 7.24149 5.52404 7.66816 5.52404C8.09482 5.52404 8.48682 5.62804 8.84416 5.83604C9.20149 6.04404 9.48416 6.32671 9.69216 6.68404C9.90016 7.04138 10.0042 7.43337 10.0042 7.86004C10.0042 8.28671 9.90016 8.67871 9.69216 9.03604C9.48416 9.39337 9.19882 9.67604 8.83616 9.88404C8.47349 10.092 8.08416 10.196 7.66816 10.196ZM12.2442 4.11604C12.2442 4.35071 12.1615 4.55071 11.9962 4.71604C11.8308 4.88138 11.6308 4.96404 11.3962 4.96404C11.1615 4.96404 10.9642 4.88138 10.8042 4.71604C10.6442 4.55071 10.5642 4.35071 10.5642 4.11604C10.5642 3.88137 10.6442 3.68404 10.8042 3.52404C10.9642 3.36404 11.1615 3.28404 11.3962 3.28404C11.6308 3.28404 11.8308 3.36404 11.9962 3.52404C12.1615 3.68404 12.2442 3.88137 12.2442 4.11604ZM14.6122 4.96404C14.5908 4.35604 14.5002 3.82804 14.3402 3.38004C14.1588 2.86804 13.8735 2.42004 13.4842 2.03604C13.0948 1.65204 12.6442 1.36937 12.1322 1.18804C11.6842 1.02804 11.1562 0.932041 10.5482 0.900042C9.97216 0.868041 9.00949 0.852041 7.66016 0.852041C6.31082 0.852041 5.34816 0.868041 4.77216 0.900042C4.15349 0.932041 3.62549 1.02804 3.18816 1.18804C2.67616 1.36937 2.22816 1.65204 1.84416 2.03604C1.46016 2.42004 1.17749 2.86804 0.996156 3.38004C0.82549 3.82804 0.72949 4.35604 0.708156 4.96404C0.676156 5.54004 0.660156 6.50271 0.660156 7.85204C0.660156 9.20138 0.676156 10.164 0.708156 10.74C0.72949 11.348 0.820156 11.876 0.980156 12.324C1.16149 12.836 1.44949 13.2894 1.84416 13.684C2.23882 14.0787 2.69216 14.3614 3.20416 14.532C3.63082 14.692 4.15349 14.7827 4.77216 14.804C5.34816 14.8467 6.31082 14.868 7.66016 14.868C9.00949 14.868 9.97216 14.8467 10.5482 14.804C11.1562 14.7827 11.6842 14.692 12.1322 14.532C12.6442 14.3507 13.0948 14.0654 13.4842 13.676C13.8735 13.2867 14.1588 12.836 14.3402 12.324C14.5002 11.876 14.5908 11.348 14.6122 10.74C14.6442 10.164 14.6602 9.20404 14.6602 7.86004C14.6602 6.51604 14.6442 5.55071 14.6122 4.96404ZM13.1242 11.988C13.0068 12.2867 12.8335 12.5534 12.6042 12.788C12.3748 13.0227 12.1055 13.1987 11.7962 13.316C11.4442 13.4547 10.8735 13.5454 10.0842 13.588C9.63616 13.6094 8.99082 13.6147 8.14816 13.604H7.18816C6.34549 13.6147 5.70016 13.6094 5.25216 13.588C4.45216 13.5454 3.88149 13.4547 3.54016 13.316C3.23082 13.1987 2.96149 13.0254 2.73216 12.796C2.50282 12.5667 2.32949 12.2974 2.21216 11.988C2.07349 11.636 1.98282 11.0654 1.94016 10.276C1.91882 9.82804 1.91349 9.18271 1.92416 8.34004V7.38004C1.91349 6.53737 1.91882 5.89204 1.94016 5.44404C1.98282 4.64404 2.07349 4.07337 2.21216 3.73204C2.32949 3.42271 2.50282 3.15337 2.73216 2.92404C2.96149 2.69471 3.23082 2.52137 3.54016 2.40404C3.88149 2.26538 4.44682 2.17471 5.23616 2.13204C5.68416 2.11071 6.33482 2.10537 7.18816 2.11604H8.14816C8.99082 2.10537 9.63616 2.11071 10.0842 2.13204C10.8735 2.17471 11.4442 2.26538 11.7962 2.40404C12.1055 2.52137 12.3748 2.69471 12.6042 2.92404C12.8335 3.15337 13.0068 3.42271 13.1242 3.73204C13.2628 4.07337 13.3535 4.63871 13.3962 5.42804C13.4175 5.87604 13.4228 6.52671 13.4122 7.38004V8.34004C13.4228 9.18271 13.4175 9.82804 13.3962 10.276C13.3535 11.0654 13.2628 11.636 13.1242 11.988Z" fill="white"/>
</svg>
