<svg width="37" height="37" viewBox="0 0 37 37" fill="none" xmlns="http://www.w3.org/2000/svg">
<rect x="1.46875" y="1.08008" width="35" height="35" rx="5.5" stroke="#E5E7EB"/>
<path d="M25.3549 20.192C25.1642 20.192 24.9956 20.258 24.8489 20.39C24.7022 20.522 24.6289 20.698 24.6289 20.918V24.592C24.6289 24.9 24.5152 25.1604 24.2879 25.373C24.0606 25.5857 23.8076 25.692 23.5289 25.692H10.6809C10.3729 25.692 10.1126 25.5784 9.89991 25.351C9.68724 25.1237 9.58091 24.8707 9.58091 24.592V20.918C9.58091 20.7274 9.51491 20.5587 9.38291 20.412C9.25091 20.2654 9.07491 20.192 8.85491 20.192C8.63491 20.192 8.45891 20.2507 8.32691 20.368C8.19491 20.4854 8.12891 20.6394 8.12891 20.83V24.504C8.12891 24.9587 8.24257 25.3804 8.46991 25.769C8.69724 26.1577 9.00524 26.4694 9.39391 26.704C9.78257 26.9387 10.2116 27.056 10.6809 27.056H23.5289C23.9836 27.056 24.4052 26.9424 24.7939 26.715C25.1826 26.4877 25.4942 26.1797 25.7289 25.791C25.9636 25.4024 26.0809 24.9734 26.0809 24.504V20.83C26.0809 20.654 26.0076 20.5037 25.8609 20.379C25.7142 20.2544 25.5456 20.192 25.3549 20.192ZM12.9909 14.868L16.3789 11.48V20.83C16.3789 21.0207 16.4449 21.1894 16.5769 21.336C16.7089 21.4827 16.8886 21.556 17.1159 21.556C17.3432 21.556 17.5192 21.4937 17.6439 21.369C17.7686 21.2444 17.8309 21.0647 17.8309 20.83V11.48L21.2409 14.868C21.3582 14.9854 21.5049 15.044 21.6809 15.044C21.7689 15.044 21.8569 15.0257 21.9449 14.989C22.0329 14.9524 22.0989 14.912 22.1429 14.868C22.2896 14.736 22.3629 14.571 22.3629 14.373C22.3629 14.175 22.2896 14.0027 22.1429 13.856L17.5669 9.28003C17.5376 9.2507 17.5009 9.22136 17.4569 9.19203C17.4129 9.1627 17.3909 9.13336 17.3909 9.10403C17.2002 9.00136 17.0169 9.00136 16.8409 9.10403C16.7822 9.10403 16.7346 9.12236 16.6979 9.15903C16.6612 9.1957 16.6429 9.23603 16.6429 9.28003L12.0669 13.856C11.9202 14.0027 11.8469 14.175 11.8469 14.373C11.8469 14.571 11.9202 14.736 12.0669 14.868C12.2136 15 12.3676 15.0697 12.5289 15.077C12.6902 15.0844 12.8442 15.0147 12.9909 14.868Z" fill="#030712"/>
</svg>
