<svg width="41" height="16" viewBox="0 0 41 16" fill="none" xmlns="http://www.w3.org/2000/svg">
<g clip-path="url(#clip0_6314_4067)">
<mask id="mask0_6314_4067" style="mask-type:luminance" maskUnits="userSpaceOnUse" x="0" y="1" width="41" height="15">
<path d="M40.5 1.54053H0.5V15.5405H40.5V1.54053Z" fill="white"/>
</mask>
<g mask="url(#mask0_6314_4067)">
<path d="M29.3 4.94023C30.2 4.94023 30.9 4.24023 30.9 3.34023C30.9 2.44023 30.2 1.74023 29.3 1.74023C28.4 1.74023 27.7 2.44023 27.7 3.34023C27.6 4.24023 28.3 4.94023 29.3 4.94023C29.3 5.04023 29.3 5.04023 29.3 4.94023ZM16.7 5.84023C16.6 6.04023 16.1 7.54023 14.8 9.14023V2.44023L11.4 3.14023V15.2403H14.8V11.5403C15.8 13.0403 16.3 15.2403 16.3 15.2403H20.4C20 13.5403 18.2 10.4402 18.2 10.4402C19.3 9.04023 20.1 7.54023 20.6 5.94023L16.7 5.84023ZM25.7 5.74023C22.6 5.84023 21.1 7.24023 21.1 9.94023V15.2403H24.5V10.9403C24.5 9.34023 24.7 8.64023 26.7 8.54023V5.84023C26.3 5.74023 25.7 5.74023 25.7 5.74023ZM5.6 7.24023C5.2 7.24023 4.2 7.14023 4.2 6.24023C4.2 5.14023 5.6 5.14023 6.1 5.14023C7 5.14023 8.2 5.44023 9.1 5.64023C9.4 5.74023 9.7 5.84023 10 5.94023V3.14023H9.9C8.9 2.74023 7.7 2.44023 5.5 2.44023C1.8 2.44023 0.5 4.64023 0.5 6.54023C0.5 7.64023 1 10.1402 5.3 10.4402C5.7 10.4402 6.6 10.5402 6.6 11.4403C6.6 12.1403 5.8 12.6403 4.5 12.6403C3 12.6403 1.6 12.2403 0.8 11.9403V14.9403C2.1 15.2403 3.5 15.4403 5.2 15.4403C8.9 15.4403 10.5 13.3403 10.5 11.3403C10.5 8.94023 8.7 7.44023 5.6 7.24023ZM27.6 15.2403H30.9V5.84023H27.6V15.2403ZM37.2 3.04023V15.2403H40.5V2.44023L37.2 3.04023ZM32.3 3.04023L35.6 2.44023V15.2403H32.3V3.04023Z" fill="#862565"/>
</g>
</g>
<defs>
<clipPath id="clip0_6314_4067">
<rect width="41" height="15" fill="white" transform="translate(0 0.94043)"/>
</clipPath>
</defs>
</svg>
