<svg width="36" height="14" viewBox="0 0 36 14" fill="none" xmlns="http://www.w3.org/2000/svg">
<g clip-path="url(#clip0_6314_4042)">
<mask id="mask0_6314_4042" style="mask-type:luminance" maskUnits="userSpaceOnUse" x="0" y="1" width="36" height="13">
<path d="M36 1.54053H0V13.5405H36V1.54053Z" fill="white"/>
</mask>
<g mask="url(#mask0_6314_4042)">
<path d="M31.6008 5.84063L32.2008 9.04063H29.8008L31.0008 5.94063L31.2008 5.34063L31.3008 4.84063C31.3008 4.94063 31.6008 5.84063 31.6008 5.84063ZM8.90078 12.9406L13.3008 2.04063H10.3008L7.60078 9.54063L7.30078 7.94063L6.30078 2.94063C6.20078 2.34063 5.70078 1.94063 4.90078 1.94063H0.400781L0.300781 2.14063C1.50078 2.34063 2.40078 2.74063 3.30078 3.34063L5.90078 13.0406H9.00078L8.90078 12.9406ZM15.6008 12.9406L17.4008 2.04063H14.6008L12.8008 13.1406H15.6008V12.9406ZM25.7008 9.44063C25.7008 8.24063 24.9008 7.24063 23.3008 6.34063C22.1008 5.84063 21.5008 5.44063 21.5008 5.04063C21.5008 4.44063 22.1008 4.14063 23.3008 4.14063C24.0008 4.14063 24.7008 4.14063 25.3008 4.64063H25.7008L26.0008 2.14063C25.1008 1.74062 24.3008 1.64062 23.4008 1.64062C22.5008 1.64062 21.7008 1.84062 21.0008 2.14063C20.3008 2.44063 19.7008 2.84063 19.2008 3.44063C18.8008 4.04063 18.6008 4.64063 18.6008 5.34063C18.6008 6.54063 19.4008 7.54063 21.2008 8.44063C22.1008 8.94063 22.6008 9.34062 22.6008 9.74062C22.6008 10.4406 22.0008 10.9406 20.9008 10.9406C20.0008 10.9406 19.0008 10.7406 18.2008 10.3406L17.8008 10.1406L17.3008 12.5406C18.3008 12.9406 19.4008 13.2406 20.5008 13.2406C21.8008 13.3406 23.0008 12.9406 24.0008 12.3406C25.2008 11.5406 25.7008 10.5406 25.7008 9.44063ZM35.7008 12.9406L33.4008 2.04063H31.2008C30.5008 2.04063 30.0008 2.24063 29.8008 2.94063L25.5008 13.1406H28.5008L29.0008 11.5406H32.8008L33.2008 13.2406H35.8008V12.9406H35.7008Z" fill="url(#paint0_linear_6314_4042)"/>
</g>
</g>
<defs>
<linearGradient id="paint0_linear_6314_4042" x1="1.58268" y1="7.44903" x2="35.2457" y2="7.44903" gradientUnits="userSpaceOnUse">
<stop stop-color="#2C3572"/>
<stop offset="1" stop-color="#3C62AB"/>
</linearGradient>
<clipPath id="clip0_6314_4042">
<rect width="36" height="13" fill="white" transform="translate(0 0.94043)"/>
</clipPath>
</defs>
</svg>
